Coordinates
version=1
nRows=13
nColumns=40
inDegrees=yes

Units are S.I. units (second, meters, Newtons, ...)
Angles are in degrees.

endheader
time	pelvis_tilt	pelvis_list	pelvis_rotation	pelvis_tx	pelvis_ty	pelvis_tz	hip_flexion_r	hip_adduction_r	hip_rotation_r	knee_angle_r	knee_angle_r_beta	ankle_angle_r	subtalar_angle_r	mtp_angle_r	hip_flexion_l	hip_adduction_l	hip_rotation_l	knee_angle_l	knee_angle_l_beta	ankle_angle_l	subtalar_angle_l	mtp_angle_l	lumbar_extension	lumbar_bending	lumbar_rotation	arm_flex_r	arm_add_r	arm_rot_r	elbow_flex_r	pro_sup_r	wrist_flex_r	wrist_dev_r	arm_flex_l	arm_add_l	arm_rot_l	elbow_flex_l	pro_sup_l	wrist_flex_l	wrist_dev_l
     16.40764286	     -5.71432269	     -6.90632117	      4.06598362	      0.79698490	      0.91554517	      0.45337650	      2.71333882	      3.26052221	    -14.55154327	     15.17566717	     15.17566717	     17.53433871	     -2.68152711	     -2.58040497	     31.54068237	     -6.90222327	     -1.23184980	     25.16117446	     25.16117446	      4.33202823	    -12.04921214	      3.39616167	     -8.42340663	      5.55732733	      2.00871845	     33.26698448	    -13.64622169	    -10.90986595	     87.79501681	     44.16393562	      0.00000000	      0.00000000	     -8.00362920	     -6.24428220	      1.86702671	     26.66721452	     44.49074809	      0.00000000	      0.00000000
     16.42028571	     -5.80653111	     -6.85727465	      3.78671851	      0.79817932	      0.91520032	      0.45149984	      3.37344912	      2.85039317	    -14.03031944	     17.23680417	     17.23680417	     17.81577118	     -3.73263618	     -2.43940030	     31.48428009	     -6.97672258	     -1.61019575	     25.99787900	     25.99787900	      4.69442312	    -11.92097595	      2.74907519	     -8.23663050	      5.30722898	      2.15340722	     32.21846493	    -13.54728962	    -10.75637085	     87.67395314	     44.17667294	      0.00000000	      0.00000000	     -7.31332503	     -6.40384446	      1.82148193	     26.24527964	     44.53464767	      0.00000000	      0.00000000
     16.43292857	     -5.75866792	     -6.82766511	      3.52412278	      0.79934831	      0.91559320	      0.44960408	      3.84089770	      2.49569834	    -13.59265185	     19.14894309	     19.14894309	     17.73492406	     -4.65833174	     -2.36110510	     31.10908373	     -7.02895986	     -1.86194275	     26.52917200	     26.52917200	      5.21881329	    -11.86345940	      2.35924128	     -8.23636236	      5.07918726	      2.22700011	     31.02937941	    -13.34659351	    -10.53590947	     87.37693309	     44.18957676	      0.00000000	      0.00000000	     -6.53628135	     -6.59352705	      1.76846492	     25.94568727	     44.57801560	      0.00000000	      0.00000000
     16.44557143	     -5.72005536	     -6.79224123	      3.25167708	      0.80028476	      0.91629440	      0.44772970	      4.54279219	      2.09675583	    -13.15521371	     21.41181589	     21.41181589	     17.44203543	     -5.72034868	     -2.41762003	     30.65448151	     -7.05833680	     -2.10551718	     26.87048486	     26.87048486	      5.83096117	    -11.76133389	      2.06042586	     -8.25738190	      4.86835918	      2.27949305	     29.71484478	    -13.12210474	    -10.24990946	     86.91103979	     44.20375485	      0.00000000	      0.00000000	     -5.67024945	     -6.80790801	      1.71042186	     25.72946364	     44.62191388	      0.00000000	      0.00000000
     16.45821429	     -5.66789983	     -6.73709528	      2.96958393	      0.80099593	      0.91726184	      0.44589936	      5.45100743	      1.65380779	    -12.72114432	     24.01324004	     24.01324004	     16.94382431	     -6.93914074	     -2.56242808	     30.10677553	     -7.06273910	     -2.40579335	     27.04778957	     27.04778957	      6.45752592	    -11.65480279	      1.81909128	     -8.30112511	      4.66071073	      2.30570948	     28.31608541	    -12.89316345	     -9.90821024	     86.28901860	     44.21891312	      0.00000000	      0.00000000	     -4.73094029	     -7.05322798	      1.65099090	     25.61490168	     44.66468487	      0.00000000	      0.00000000
     16.47085714	     -5.68198181	     -6.70186079	      2.68333516	      0.80145990	      0.91831618	      0.44409896	      6.65187551	      1.22582685	    -12.22046590	     26.93221724	     26.93221724	     16.22198603	     -8.40139160	     -2.70037143	     29.54319641	     -7.05634922	     -2.66878741	     27.03085421	     27.03085421	      7.08282296	    -11.51400533	      1.61906412	     -8.30952534	      4.48250708	      2.36799659	     26.81509202	    -12.69650406	     -9.48945503	     85.47621720	     44.23858497	      0.00000000	      0.00000000	     -3.70238365	     -7.30967380	      1.58379948	     25.52160897	     44.71171419	      0.00000000	      0.00000000
     16.48350000	     -5.67635123	     -6.66096017	      2.39945260	      0.80178846	      0.91950743	      0.44234424	      7.95586528	      0.80827204	    -11.73724202	     30.00007842	     30.00007842	     15.31619474	    -10.01451482	     -2.77006507	     28.90887796	     -7.03880326	     -2.97335622	     26.90516143	     26.90516143	      7.63447798	    -11.42506650	      1.45742575	     -8.31529623	      4.31899095	      2.40341212	     25.26701256	    -12.54129712	     -9.01039538	     84.47779557	     44.26371339	      0.00000000	      0.00000000	     -2.60412067	     -7.57914743	      1.50782912	     25.47601483	     44.76275114	      0.00000000	      0.00000000
     16.49614286	     -5.60183363	     -6.58336470	      2.13313184	      0.80202673	      0.92079596	      0.44057531	      9.30994056	      0.33252070	    -11.33072902	     33.23243103	     33.23243103	     14.31257551	    -11.57187789	     -2.79310281	     28.15574986	     -6.96488063	     -3.26309717	     26.68977339	     26.68977339	      8.12485876	    -11.36463529	      1.29287876	     -8.42085498	      4.12988482	      2.39337408	     23.67096333	    -12.32689937	     -8.51375055	     83.38341860	     44.28796128	      0.00000000	      0.00000000	     -1.50222742	     -7.90016913	      1.43174390	     25.60281218	     44.80879052	      0.00000000	      0.00000000
     16.50878571	     -5.55036056	     -6.53266092	      1.89387175	      0.80212935	      0.92203745	      0.43881207	     10.77158500	     -0.09710635	    -10.95215147	     36.52332886	     36.52332886	     13.22717855	    -13.24384326	     -2.62067409	     27.41058067	     -6.88914363	     -3.50576624	     26.39971162	     26.39971162	      8.49672621	    -11.36298480	      1.14405825	     -8.46827612	      4.00298107	      2.39296091	     22.02151649	    -12.19575034	     -7.96435051	     82.02735534	     44.31994180	      0.00000000	      0.00000000	     -0.35728407	     -8.21763741	      1.34875729	     25.81005084	     44.85685426	      0.00000000	      0.00000000
     16.52142857	     -5.41664058	     -6.44585757	      1.70296878	      0.80221829	      0.92321524	      0.43691316	     12.19223383	     -0.60361922	    -10.69073745	     39.84708275	     39.84708275	     12.19310861	    -14.77375363	     -2.39192606	     26.57180301	     -6.74466592	     -3.75138239	     26.09862326	     26.09862326	      8.90929095	    -11.40675585	      0.97782474	     -8.62013166	      3.89608365	      2.32457791	     20.31685695	    -11.99651297	     -7.43990418	     80.65822702	     44.34925656	      0.00000000	      0.00000000	      0.80115035	     -8.59868662	      1.26754101	     26.14928714	     44.89971499	      0.00000000	      0.00000000
     16.53407143	     -5.22654007	     -6.39804901	      1.57930021	      0.80224082	      0.92443072	      0.43498761	     13.53008526	     -1.08953961	    -10.57335789	     43.05243530	     43.05243530	     11.15501737	    -16.13496764	     -2.06644093	     25.72004145	     -6.60850536	     -3.86450739	     25.83480670	     25.83480670	      9.21268233	    -11.42700572	      0.85041455	     -8.86985237	      3.85202891	      2.18874203	     18.54268444	    -11.77909402	     -6.94396998	     79.24651426	     44.37809452	      0.00000000	      0.00000000	      2.00567983	     -8.95933039	      1.19573893	     26.58432465	     44.93824283	      0.00000000	      0.00000000
     16.54671429	     -5.21200485	     -6.29263890	      1.39683322	      0.80208418	      0.92531266	      0.43303116	     15.29823741	     -1.56715645	    -10.15885920	     46.62817353	     46.62817353	     11.61405915	    -16.97370471	      2.48246568	     24.95501525	     -6.34485960	     -3.86693117	     25.33049857	     25.33049857	      8.97534264	    -12.02586275	      0.15728450	     -8.65605013	      3.81549859	      1.62411217	     17.91779769	    -11.71969750	     -5.26841462	     74.81155058	     44.53342394	      0.00000000	      0.00000000	      2.87096445	     -9.35702015	      0.90910267	     26.94745070	     45.06642934	      0.00000000	      0.00000000
     16.55935714	     -5.02020475	     -6.18988886	      1.27565653	      0.80207112	      0.92623859	      0.43099148	     16.63896226	     -2.15530155	    -10.06765025	     49.64360355	     49.64360355	     10.83532843	    -17.88226870	      2.81737375	     24.11811710	     -6.14004660	     -4.02605450	     25.09737004	     25.09737004	      9.27566964	    -12.07386736	      0.08250477	     -8.83101900	      3.79112410	      1.68421385	     15.94431320	    -11.75007005	     -4.90332282	     73.37690631	     44.56810689	      0.00000000	      0.00000000	      4.05728881	     -9.76273499	      0.76588826	     27.62919061	     45.11562716	      0.00000000	      0.00000000
